<svg xmlns="http://www.w3.org/2000/svg" xmlns:xlink="http://www.w3.org/1999/xlink" width="219.561" height="67.679" viewBox="0 0 219.561 67.679">
  <defs>
    <clipPath id="clip-path">
      <rect id="Rectangle_879" data-name="Rectangle 879" width="219.561" height="67.679" transform="translate(0 0)" fill="none"/>
    </clipPath>
    <filter id="Rectangle_878" x="5.631" y="3.677" width="215" height="65" filterUnits="userSpaceOnUse">
      <feOffset dx="5" dy="5" input="SourceAlpha"/>
      <feGaussianBlur result="blur"/>
      <feFlood flood-color="#3a2c50" flood-opacity="0.4"/>
      <feComposite operator="in" in2="blur"/>
      <feComposite in="SourceGraphic"/>
    </filter>
    <clipPath id="clip-path-2">
      <rect id="Rectangle_880" data-name="Rectangle 880" width="210" height="60.001" rx="10" transform="translate(5.631 3.677)" fill="none"/>
    </clipPath>
  </defs>
  <g id="会員種別" transform="translate(0 0)">
    <g id="Group_249" data-name="Group 249">
      <g id="Group_248" data-name="Group 248" clip-path="url(#clip-path)">
        <g transform="matrix(1, 0, 0, 1, 0, 0)" filter="url(#Rectangle_878)">
          <rect id="Rectangle_878-2" data-name="Rectangle 878" width="210" height="60" rx="10" transform="translate(5.63 3.68)" fill="#5c457e"/>
        </g>
      </g>
    </g>
    <g id="Group_251" data-name="Group 251">
      <g id="Group_250" data-name="Group 250" clip-path="url(#clip-path-2)">
        <path id="Path_4173" data-name="Path 4173" d="M2.466,6.418c.025.043,1.443-.885,1.465-.846.064.109,5.6,2.134,5.672,2.256.131.227,7.06-4.453,7.223-4.171C17,3.967,7.6,13.88,7.742,14.132c.234.4,19.741-12.064,20.029-11.564.362.627-21.184,17.406-20.885,17.924.352.61,24.236-15.2,24.758-14.294C32.123,7.026,5.09,25.991,5.459,26.63c.67,1.16,37.628-23.01,38.185-22.046.488.845-38.276,26.618-37.635,27.73C6.775,33.641,53.94,3.184,54.571,4.277,55.4,5.707,3.681,37.33,4.578,38.884,5.34,40.2,61.479,4.433,62.172,5.632c.854,1.48-53.274,35.075-52.59,36.26C10.615,43.681,75.739.965,76.921,3.013,77.884,4.682.362,50.739,1.513,52.733,2.874,55.09,87.974.124,89.139,2.141,90.615,4.7,3.5,53.778,4.9,56.207,5.967,58.049,98.014-1.014,99.513,1.583,100.73,3.692,1.065,60.26,2.531,62.8,3.862,65.106,102.45,2,103.8,4.334,104.87,6.188,14.293,58.81,15.666,61.187c1.637,2.835,98.543-59.723,99.768-57.6C117.088,6.45,19.019,62.148,20.5,64.706S128.2-1,129.723,1.645c1.54,2.668-96.876,58.511-95.709,60.531,1.438,2.491,100.442-61,101.747-58.744,1.271,2.2-98.932,58.991-97.4,61.638C39.688,67.376,145.665.2,146.928,2.387c1.478,2.56-95.918,57.743-94.622,59.988,1.57,2.719,98.908-60.35,100.313-57.916C154.2,7.2,56.465,62.249,57.867,64.676,59.11,66.829,160.321,1.685,161.983,4.564c1.322,2.291-92.53,55.985-91.33,58.064C71.943,64.863,168.3,3.264,169.6,5.5c1.18,2.043-94.369,57.207-93.085,59.431C78.22,67.892,183.432.305,184.688,2.479c1.244,2.155-96.132,58.386-94.835,60.634,1.756,3.041,101.43-61.549,102.724-59.308,1.134,1.965-95.318,57.589-94.065,59.76C100.031,66.2,203.872-.719,205.368,1.872c1.541,2.669-96.874,58.73-95.6,60.939,1.744,3.022,98.6-59.772,99.831-57.638,1.4,2.434-90.993,55.916-89.812,57.961,1.357,2.352,93.282-57.455,94.84-54.756,1.185,2.051-83.915,51.023-82.636,53.238,1.1,1.9,81.385-49.836,82.618-47.7,1.314,2.275-75.352,46.791-74.308,48.6,1.117,1.935,75.22-46.468,76.536-44.189.979,1.7-73.652,45.924-72.564,47.808.916,1.586,67.6-40.97,68.438-39.513.629,1.089-51.579,33.823-50.709,35.331.657,1.137,51.473-31.477,52.235-30.158.571.99-47.063,31.184-46.47,32.211.624,1.079,45.683-28.221,46.482-26.836.634,1.1-36.552,25.484-35.979,26.476.549.952,32.768-20.262,33.35-19.254.453.786-27,20.428-26.57,21.172.37.642,31.824-19.107,32.142-18.558.24.417-16.167,14.737-15.839,15.3.2.354,16.478-10.037,16.705-9.645.121.211-4.961,8.645-4.838,8.859.082.142,3.812-2.423,3.909-2.256" fill="none" stroke="#7254a0" stroke-linecap="round" stroke-linejoin="round" stroke-width="3"/>
      </g>
    </g>
    <g id="Group_253" data-name="Group 253">
      <g id="Group_252" data-name="Group 252" clip-path="url(#clip-path)">
        <rect id="Rectangle_881" data-name="Rectangle 881" width="210" height="60" rx="10" transform="translate(5.631 3.677)" fill="none" stroke="#5c457e" stroke-linejoin="round" stroke-width="2"/>
      </g>
    </g>
  </g>
</svg>
